<?xml version="1.0" encoding="utf-8"?><svg viewBox="0 0 310 310" xmlns="http://www.w3.org/2000/svg" xmlns:xlink="http://www.w3.org/1999/xlink"><style>:root>svg{display:none}:root>svg:target{display:block}</style><svg viewBox="-2 -2 24 24" preserveAspectRatio="xMinYMin" class="ajam ajam-cog-f" id="cog-f" xmlns="http://www.w3.org/2000/svg"><path d="M20 8.163A2.106 2.106 0 0018.926 10c0 .789.433 1.476 1.074 1.837l-.717 2.406a2.105 2.105 0 00-2.218 3.058l-2.062 1.602A2.104 2.104 0 0011.633 20l-3.29-.008a2.104 2.104 0 00-3.362-1.094l-2.06-1.615A2.105 2.105 0 00.715 14.24L0 11.825A2.106 2.106 0 001.051 10C1.051 9.22.63 8.54 0 8.175L.715 5.76a2.105 2.105 0 002.207-3.043L4.98 1.102A2.104 2.104 0 008.342.008L11.634 0a2.104 2.104 0 003.37 1.097l2.06 1.603a2.105 2.105 0 002.218 3.058L20 8.162zM10 14a4 4 0 100-8 4 4 0 000 8z"/></svg><svg viewBox="0 0 300 300" id="instagram" xmlns="http://www.w3.org/2000/svg"><path d="M38.52.012h222.978C282.682.012 300 17.336 300 38.52v222.978c0 21.178-17.318 38.49-38.502 38.49H38.52c-21.184 0-38.52-17.313-38.52-38.49V38.52C0 17.336 17.336.012 38.52.012zm180.026 33.317c-7.438 0-13.505 6.091-13.505 13.525v32.314c0 7.437 6.067 13.514 13.505 13.514h33.903c7.426 0 13.506-6.077 13.506-13.514V46.854c0-7.434-6.08-13.525-13.506-13.525h-33.903zm47.538 93.539h-26.396a87.715 87.715 0 013.86 25.759c0 49.882-41.766 90.34-93.266 90.34-51.487 0-93.254-40.458-93.254-90.34 0-8.963 1.37-17.584 3.861-25.759H33.35V253.6c0 6.563 5.359 11.902 11.916 11.902h208.907c6.563 0 11.911-5.339 11.911-11.902V126.868zm-115.801-35.89c-33.26 0-60.24 26.128-60.24 58.388 0 32.227 26.98 58.375 60.24 58.375 33.278 0 60.259-26.148 60.259-58.375 0-32.261-26.981-58.388-60.259-58.388z"/></svg><svg viewBox="0 0 310 310" id="twitter" xmlns="http://www.w3.org/2000/svg"><path d="M302.973 57.388a117.512 117.512 0 01-14.993 5.463 66.276 66.276 0 0013.494-23.73 5 5 0 00-7.313-5.824 117.994 117.994 0 01-34.878 13.783c-12.381-12.098-29.197-18.983-46.581-18.983-36.695 0-66.549 29.853-66.549 66.547 0 2.89.183 5.764.545 8.598C101.163 99.244 58.83 76.863 29.76 41.204a5.001 5.001 0 00-8.196.642c-5.896 10.117-9.013 21.688-9.013 33.461 0 16.035 5.725 31.249 15.838 43.137a56.37 56.37 0 01-8.907-3.977 5 5 0 00-7.427 4.257c-.007.295-.007.59-.007.889 0 23.935 12.882 45.484 32.577 57.229a57.372 57.372 0 01-5.063-.735 4.998 4.998 0 00-5.699 6.437c7.29 22.76 26.059 39.501 48.749 44.605-18.819 11.787-40.34 17.961-62.932 17.961a120.4 120.4 0 01-14.095-.826 5 5 0 00-3.286 9.174c29.023 18.609 62.582 28.445 97.047 28.445 67.754 0 110.139-31.95 133.764-58.753 29.46-33.421 46.356-77.658 46.356-121.367 0-1.826-.028-3.67-.084-5.508 11.623-8.757 21.63-19.355 29.773-31.536a5 5 0 00-6.182-7.351z"/></svg></svg>